Coordinates
version=1
nRows=11
nColumns=63
inDegrees=yes

Units are S.I. units (second, meters, Newtons, ...)
If the header above contains a line with 'inDegrees', this indicates whether rotational values are in degrees (yes) or radians (no).

endheader
time	pelvis_tilt	pelvis_list	pelvis_rotation	pelvis_tx	pelvis_ty	pelvis_tz	hip_flexion_r	hip_adduction_r	hip_rotation_r	knee_angle_r	knee_angle_r_beta	ankle_angle_r	subtalar_angle_r	mtp_angle_r	hip_flexion_l	hip_adduction_l	hip_rotation_l	knee_angle_l	knee_angle_l_beta	ankle_angle_l	subtalar_angle_l	mtp_angle_l	L5_S1_Flex_Ext	L5_S1_Lat_Bending	L5_S1_axial_rotation	L4_L5_Flex_Ext	L4_L5_Lat_Bending	L4_L5_axial_rotation	L3_L4_Flex_Ext	L3_L4_Lat_Bending	L3_L4_axial_rotation	L2_L3_Flex_Ext	L2_L3_Lat_Bending	L2_L3_axial_rotation	L1_L2_Flex_Ext	L1_L2_Lat_Bending	L1_L2_axial_rotation	L1_T12_Flex_Ext	L1_T12_Lat_Bending	L1_T12_axial_rotation	Abs_r3	Abs_r2	Abs_r1	Abs_t1	Abs_t2	neck_flexion	neck_bending	neck_rotation	arm_flex_r	arm_add_r	arm_rot_r	elbow_flex_r	pro_sup_r	wrist_flex_r	wrist_dev_r	arm_flex_l	arm_add_l	arm_rot_l	elbow_flex_l	pro_sup_l	wrist_flex_l	wrist_dev_l
      0.00800000	    -44.36083687	      2.09663530	     -9.70040108	     -0.24432142	      1.03938719	      0.00287609	    118.95690836	     -0.52306797	     -0.81556917	    116.78465178	      2.03827669	     15.58137519	      3.38183584	      0.00000000	     76.63134779	    -13.60476467	     -9.07876884	     45.16086615	      0.78820581	      0.05136861	     -2.75789586	      0.00000000	     -0.04933667	      0.00537652	      1.35941520	     -0.09162313	      0.00715077	      1.44437865	     -0.08105521	      0.01307248	      1.44437865	     -0.05638688	      0.01307248	      1.18948830	     -0.04581403	      0.01096380	      1.10452485	     -0.02819097	      0.00832823	      1.01956140	     -0.35240688	      0.06082030	      7.56065953	      0.00000000	      0.00000000	     -0.00000000	      0.00000000	      0.00000000	     76.05842126	    -11.05891505	     30.65822536	     30.88970469	     40.81944770	      0.00000000	      5.52213239	     76.21475089	    -10.69769386	     27.01713853	     30.34639442	     48.14496380	      0.00000000	      5.52213239
      0.01700000	    -44.29996141	      2.32091293	     -9.83917323	     -0.24322514	      1.03914151	      0.00318666	    120.02099417	     -0.25353525	     -0.44887876	    115.87946333	      2.02247817	     15.97330725	      3.59652216	      0.00000000	     76.39338317	    -13.70959978	     -9.28332659	     47.45835111	      0.82830448	      0.35734860	     -3.69868683	      0.00000000	     -0.04946345	     -0.02213809	      1.34644268	     -0.09185857	     -0.02944366	      1.43059535	     -0.08126350	     -0.05382655	      1.43059535	     -0.05653177	     -0.05382655	      1.17813735	     -0.04593176	     -0.04514399	      1.09398468	     -0.02826341	     -0.03429190	      1.00983201	     -0.35331246	     -0.25043047	      7.48851028	      0.00000000	      0.00000000	     -0.00000000	      0.00000000	      0.00000000	     75.65179754	    -10.46494352	     29.25907063	     31.11079319	     40.44662362	      0.00000000	      5.46727021	     75.90686021	    -10.90830894	     25.81095973	     30.87417377	     48.03247682	      0.00000000	      5.46727021
      0.02500000	    -44.32684271	      2.43236712	     -9.71775352	     -0.24327587	      1.03921240	      0.00309768	    120.20976540	     -0.36470309	     -0.39982154	    115.34243120	      2.01310519	     16.00549511	      3.54013999	      0.00000000	     76.56190582	    -13.64639539	     -9.18150339	     48.40107589	      0.84475814	      0.60755333	     -3.65448965	      0.00000000	     -0.04723776	     -0.03635564	      1.31966181	     -0.08772524	     -0.04835300	      1.40214067	     -0.07760691	     -0.08839509	      1.40214067	     -0.05398803	     -0.08839509	      1.15470408	     -0.04386498	     -0.07413641	      1.07222522	     -0.02699166	     -0.05631488	      0.98974636	     -0.33741458	     -0.41126222	      7.33956307	      0.00000000	      0.00000000	     -0.00000000	      0.00000000	      0.00000000	     75.63876046	    -10.43683563	     29.25339967	     31.20996558	     40.49268917	      0.00000000	      5.45402178	     75.94530804	    -11.00890472	     25.75507684	     30.96353326	     47.99628618	      0.00000000	      5.45402178
      0.03300000	    -44.32785569	      2.56988299	     -9.58124167	     -0.24338929	      1.03932803	      0.00303708	    120.35158983	     -0.46003740	     -0.30074198	    114.66871391	      2.00134661	     15.99353834	      3.64430521	      0.00000000	     76.77824777	    -13.58102207	     -9.03889748	     49.59675353	      0.86562665	      0.88606031	     -3.60219543	      0.00000000	     -0.04908155	     -0.05407012	      1.28970119	     -0.09114934	     -0.07191326	      1.37030751	     -0.08063608	     -0.13146610	      1.37030751	     -0.05609530	     -0.13146610	      1.12848854	     -0.04557713	     -0.11025980	      1.04788221	     -0.02804520	     -0.08375462	      0.96727589	     -0.35058459	     -0.61165205	      7.17293108	      0.00000000	      0.00000000	     -0.00000000	      0.00000000	      0.00000000	     75.66469110	    -10.36640754	     29.25748465	     31.18780268	     40.54328998	      0.00000000	      5.44034635	     76.03722036	    -11.10129010	     25.70831365	     30.94053549	     47.96168582	      0.00000000	      5.44034635
      0.04200000	    -44.34300441	      2.69085972	     -9.43241767	     -0.24356973	      1.03946658	      0.00298889	    120.44092247	     -0.57244581	     -0.23005052	    113.82530333	      1.98662632	     15.97916799	      3.88295671	      0.00000000	     77.07002578	    -13.52521373	     -8.79260566	     50.99287524	      0.88999357	      1.17386102	     -3.44784286	      0.00000000	     -0.04815377	     -0.07054416	      1.25859613	     -0.08942637	     -0.09382374	      1.33725839	     -0.07911183	     -0.17152108	      1.33725839	     -0.05503494	     -0.17152108	      1.10127161	     -0.04471559	     -0.14385365	      1.02260935	     -0.02751506	     -0.10927291	      0.94394710	     -0.34395756	     -0.79800967	      6.99993409	      0.00000000	      0.00000000	     -0.00000000	      0.00000000	      0.00000000	     75.70302773	    -10.28576241	     29.27434238	     31.09480515	     40.63413937	      0.00000000	      5.42075788	     76.13272264	    -11.16772800	     25.70239747	     30.86990568	     47.91131801	      0.00000000	      5.42075788
      0.05000000	    -44.34744733	      2.70300929	     -9.36168796	     -0.24381857	      1.03972586	      0.00298078	    120.38987845	     -0.65405466	     -0.22766811	    112.79863524	      1.96870758	     16.20907292	      4.90350797	      0.00000000	     77.40352092	    -13.57278386	     -8.36330727	     52.54367198	      0.91706008	      1.49026398	     -3.08386777	      0.00000000	     -0.04960793	     -0.07271305	      1.24591333	     -0.09212689	     -0.09670835	      1.32378291	     -0.08150087	     -0.17679450	      1.32378291	     -0.05669691	     -0.17679450	      1.09017416	     -0.04606593	     -0.14827644	      1.01230458	     -0.02834597	     -0.11263251	      0.93443500	     -0.35434450	     -0.82254452	      6.92939618	      0.00000000	      0.00000000	     -0.00000000	      0.00000000	      0.00000000	     75.87272739	    -10.18774415	     29.50925428	     30.66480721	     40.70397151	      0.00000000	      5.39652633	     76.33759977	    -11.16757880	     26.03500634	     30.47978129	     47.97529853	      0.00000000	      5.39652633
      0.05800000	    -44.35339236	      2.80522037	     -9.08517046	     -0.24396515	      1.03990953	      0.00291444	    120.31226787	     -0.81817593	     -0.18392307	    111.70804574	      1.94967320	     16.23265298	      5.00923165	      0.00000000	     77.77489287	    -13.39305664	     -7.98267545	     54.22966394	      0.94648619	      1.75595582	     -2.82787703	      0.00000000	     -0.04904904	     -0.09046775	      1.19058557	     -0.09108897	     -0.12032211	      1.26499717	     -0.08058267	     -0.21996329	      1.26499717	     -0.05605815	     -0.21996329	      1.04176237	     -0.04554694	     -0.18448184	      0.96735078	     -0.02802662	     -0.14013455	      0.89293918	     -0.35035239	     -1.02338931	      6.62167976	      0.00000000	      0.00000000	     -0.00000000	      0.00000000	      0.00000000	     75.85156415	    -10.13962129	     29.60193560	     30.67193991	     40.79869433	      0.00000000	      5.37690464	     76.39597426	    -11.26807161	     26.18523709	     30.52293351	     47.95741197	      0.00000000	      5.37690464
      0.06700000	    -44.37532909	      2.62899835	     -8.88891779	     -0.24417222	      1.04015321	      0.00288385	    120.03528187	     -1.02167896	     -0.39639168	    110.42558252	      1.92728999	     16.55524079	      5.67963050	      0.00000000	     78.25814191	    -13.36455145	     -7.21854923	     56.07637218	      0.97871733	      2.10990485	     -2.19563039	      0.00000000	     -0.05047321	     -0.07335330	      1.15141130	     -0.09373380	     -0.09755989	      1.22337451	     -0.08292244	     -0.17835122	      1.22337451	     -0.05768584	     -0.17835122	      1.00748489	     -0.04686943	     -0.14958205	      0.93552168	     -0.02884039	     -0.11362427	      0.86355848	     -0.36052511	     -0.82978723	      6.40380424	      0.00000000	      0.00000000	     -0.00000000	      0.00000000	      0.00000000	     75.98770011	    -10.07813815	     29.95726945	     30.35245958	     40.82813055	      0.00000000	      5.36002229	     76.55991227	    -11.36150584	     26.96099143	     30.34447884	     48.14441642	      0.00000000	      5.36002229
      0.07500000	    -44.39212046	      2.80711283	     -8.52416570	     -0.24436833	      1.04029073	      0.00277207	    119.82581772	     -1.21477806	     -0.33161286	    109.11225044	      1.90436802	     16.60649049	      5.62584360	      0.00000000	     78.66852329	    -13.04936833	     -6.91099278	     57.87883036	      1.01017616	      2.34575811	     -2.07380147	      0.00000000	     -0.04782495	     -0.10248933	      1.07559068	     -0.08881571	     -0.13631080	      1.14281510	     -0.07857161	     -0.24919255	      1.14281510	     -0.05465914	     -0.24919255	      0.94114184	     -0.04441025	     -0.20899623	      0.87391743	     -0.02732718	     -0.15875597	      0.80669301	     -0.34160883	     -1.15937975	      5.98211268	      0.00000000	      0.00000000	     -0.00000000	      0.00000000	      0.00000000	     75.96269862	    -10.00347813	     30.01933940	     30.34860273	     40.84211409	      0.00000000	      5.35473962	     76.64500877	    -11.47987108	     27.09507740	     30.36612616	     48.17015042	      0.00000000	      5.35473962
      0.08300000	    -44.39092475	      2.83061676	     -8.17824976	     -0.24450971	      1.04043441	      0.00265118	    119.44748033	     -1.42254924	     -0.42650038	    107.68731621	      1.87949823	     16.75644321	      5.55199258	      0.00000000	     79.14223720	    -12.78155675	     -6.40231380	     59.79699410	      1.04365443	      2.52597784	     -1.80528907	      0.00000000	     -0.04944749	     -0.11325995	      1.00308360	     -0.09182893	     -0.15063573	      1.06577633	     -0.08123728	     -0.27538023	      1.06577633	     -0.05651353	     -0.27538023	      0.87769815	     -0.04591694	     -0.23095968	      0.81500543	     -0.02825429	     -0.17543966	      0.75231270	     -0.35319846	     -1.28121916	      5.57885007	      0.00000000	      0.00000000	     -0.00000000	      0.00000000	      0.00000000	     75.97189032	     -9.89402153	     30.04827760	     30.21416293	     40.84830848	      0.00000000	      5.34932225	     76.71790348	    -11.56869284	     27.32740542	     30.37425576	     48.21466842	      0.00000000	      5.34932225
      0.09200000	    -44.44438195	      2.34285659	     -7.91979609	     -0.24466914	      1.04061149	      0.00239413	    118.80608178	     -1.77819547	     -1.11533263	    106.06269891	      1.85114331	     17.29130694	      5.42469114	      0.00000000	     79.83211163	    -12.71682348	     -5.23669869	     61.85017448	      1.07948919	      2.82698168	     -0.84511150	      0.00000000	     -0.04988234	     -0.05429483	      0.94545568	     -0.09263648	     -0.07221212	      1.00454666	     -0.08195169	     -0.13201244	      1.00454666	     -0.05701052	     -0.13201244	      0.82727372	     -0.04632074	     -0.11071801	      0.76818274	     -0.02850277	     -0.08410268	      0.70909176	     -0.35630453	     -0.61419392	      5.25834085	      0.00000000	      0.00000000	     -0.00000000	      0.00000000	      0.00000000	     76.13834126	     -9.76408018	     30.13375684	     29.77910645	     40.82766032	      0.00000000	      5.33916679	     76.76862145	    -11.72514862	     28.15193518	     30.37774079	     48.40221059	      0.00000000	      5.33916679
